<?xml version="1.0" encoding="UTF-8"?>
<svg version="1.1" xmlns="http://www.w3.org/2000/svg" xmlns:xlink="http://www.w3.org/1999/xlink">
  <symbol id="logo" class="h-5 w-5" viewBox="0 0 20 20" fill="currentColor">
    <polyline points="2,16 2,4 10,10 18,4 18,16" fill="none" stroke="#092333" stroke-width="1.2px" />
    <polyline points="16,16 16,8 8,16 16,16" fill="#003264" />
    <polyline points="4,16 4,8 10,12" fill="#00B849" />
  </symbol>

  <symbol id="folderColor" x="0px" y="0px" viewBox="0 0 340 340" style="enable-background:new 0 0 340 340;" xml:space="preserve">
    <polygon style="fill:#1E2E3B;" points="170,120 150,90 10,90 10,160 170,170 330,160 330,120 	"/>
    <polygon style="fill:#ACABB1;" points="50,320 50,0 250,0 310,60 310,320 		"/>
    <polygon style="fill:#818085;" points="250,0 310,60 250,60 		"/>
    <polygon style="fill:#EEEEEF;" points="30,310 30,40 230,40 290,100 290,310 		"/>
    <polygon style="fill:#DEDDE0;" points="230,40 160,40 160,310 290,310 290,100 		"/>
    <rect x="90" y="120" style="fill:#5A8BB0;" width="140" height="20"/>
    <rect x="160" y="120" style="fill:#1E2E3B;" width="70" height="20"/>
    <polygon style="fill:#1E2E3B;" points="230,40 290,100 230,100"/>
    <rect x="10" y="160" style="fill:#78B9EB;" width="320" height="180"/>
    <polygon style="fill:#5A8BB0;" points="330,340 10,340 330,160 	"/>
  </symbol>

  <symbol id="userTag" x="0px" y="0px" viewBox="0 0 512 512" style="enable-background:new 0 0 512 512;" xml:space="preserve">
    <rect x="33.854" y="388.137" style="fill:#CFF09E;" width="444.293" height="107.352"/>
    <path style="fill:#507C5C;" d="M478.146,327.617c9.122,0,16.516-7.394,16.516-16.516V16.516C494.663,7.394,487.268,0,478.146,0	H33.854c-9.122,0-16.516,7.394-16.516,16.516v371.615v30.356v76.996c0,9.122,7.394,16.516,16.516,16.516h444.292c9.122,0,16.516-7.394,16.516-16.516V388.132c0-9.122-7.394-16.516-16.516-16.516H374.089v-62.929c0-36.848-22.406-68.553-54.306-82.229c17.303-16.718,28.094-40.133,28.094-66.036c0-50.661-41.217-91.876-91.876-91.876s-91.878,41.217-91.878,91.878c0,50.651,41.2,91.86,91.846,91.876c0.01,0,0.021,0.002,0.031,0.002h28.669c31.092,0,56.387,25.295,56.387,56.387v62.929H170.944v-62.929c0-9.122-7.394-16.516-16.516-16.516s-16.516,7.394-16.516,16.516v62.929H50.37V33.033h411.26v278.068C461.63,320.223,469.024,327.617,478.146,327.617z M197.157,160.423c0-32.447,26.397-58.843,58.843-58.843s58.843,26.397,58.843,58.843S288.447,219.266,256,219.266S197.157,192.869,197.157,160.423z M461.63,404.648v74.319H50.37v-60.48v-13.839H461.63z"/>
  </symbol>

  <symbol id="usersColor" x="0px" y="0px" viewBox="0 0 448.943 448.943" style="enable-background:new 0 0 448.943 448.943;" xml:space="preserve">
    <path style="fill:#1EA6C6;" d="M246.375,255.051c20.52,0,40.39-7.91,57.98-22.75v62.53h-26.9v125.4c-10.16,1.39-20.54,2.11-31.08,2.11c-58.79,0-112.38-22.3-152.75-58.91v-0.13c0-60.89,35.63-113.45,87.17-137.98 C200.165,244.641,222.845,255.051,246.375,255.051z"/>
    <path style="fill:#008DB3;" d="M382.945,294.83h-24.55l-49.38-66.66c0.99-0.93,1.98-1.88,2.95-2.85 C342.665,239.931,367.715,264.491,382.945,294.83z"/>
    <path style="fill:#FCD09F;" d="M246.375,33.005c46.66,0,84.49,37.82,84.49,84.48c0,46.67-37.83,110.49-84.49,110.49s-84.49-63.82-84.49-110.49C161.885,70.825,199.715,33.005,246.375,33.005z"/>
    <path style="fill:#EF806F;" d="M175.17,198.272c2.59,3.69,5.27,7.15,8.04,10.4l-8.43,4.01c-28.06,13.35-51.8,34.24-68.67,60.41c-13.72,21.29-22.32,45.29-25.31,70.31c-30.49-8.31-58.05-23.72-80.8-44.35v-0.11c0-53.06,31.05-98.86,75.96-120.24c16.88,16.84,36.64,25.91,57.14,25.91c13.43,0,26.55-3.89,38.74-11.31C172.91,194.982,174.03,196.642,175.17,198.272z"/>
    <path style="fill:#EFC59C;" d="M147.89,117.482c0,17.54,4.56,36.84,12.68,54.98c-8.49,5.38-17.76,8.55-27.47,8.55c-40.66,0-73.62-55.61-73.62-96.28c0-40.66,32.96-73.61,73.62-73.61c22.55,0,42.74,10.14,56.24,26.11 C164.27,55.112,147.89,84.422,147.89,117.482z"/>
    <polygon style="fill:#EF806F;" points="351.348,308.827 318.35,264.293 318.35,308.827 291.451,308.827 291.451,437.821 448.943,437.821 448.943,308.827 	"/>
    <rect x="322.949" y="347.988" style="fill:#FFFFFF;" width="94.495" height="15"/>
    <rect x="322.949" y="383.986" style="fill:#FFFFFF;" width="94.495" height="15"/>
  </symbol>

  <symbol id="serverColor" x="0px" y="0px" viewBox="0 0 59 59" style="enable-background:new 0 0 59 59;" xml:space="preserve">
    <path style="fill:#556080;" d="M54.892,19H4.108C2.116,19,0.5,17.384,0.5,15.392V3.608C0.5,1.616,2.116,0,4.108,0h50.783 C56.884,0,58.5,1.616,58.5,3.608v11.783C58.5,17.384,56.884,19,54.892,19z"/>
    <path style="fill:#38454F;" d="M54.892,38H4.108C2.116,38,0.5,36.384,0.5,34.392V22.608C0.5,20.616,2.116,19,4.108,19h50.783c1.993,0,3.608,1.616,3.608,3.608v11.783C58.5,36.384,56.884,38,54.892,38z"/>
    <path style="fill:#556080;" d="M54.892,57H4.108C2.116,57,0.5,55.384,0.5,53.392V41.608C0.5,39.616,2.116,38,4.108,38h50.783c1.993,0,3.608,1.616,3.608,3.608v11.783C58.5,55.384,56.884,57,54.892,57z"/>
    <circle style="fill:#8697CB;" cx="10" cy="9.5" r="3.5"/>
    <circle style="fill:#8697CB;" cx="49.5" cy="8" r="1"/>
    <circle style="fill:#8697CB;" cx="45.5" cy="8" r="1"/>
    <circle style="fill:#8697CB;" cx="51.5" cy="11" r="1"/>
    <circle style="fill:#8697CB;" cx="47.5" cy="11" r="1"/>
    <circle style="fill:#8697CB;" cx="41.5" cy="8" r="1"/>
    <circle style="fill:#8697CB;" cx="43.5" cy="11" r="1"/>
    <circle style="fill:#8697CB;" cx="37.5" cy="8" r="1"/>
    <circle style="fill:#8697CB;" cx="39.5" cy="11" r="1"/>
    <circle style="fill:#8697CB;" cx="33.5" cy="8" r="1"/>
    <circle style="fill:#8697CB;" cx="35.5" cy="11" r="1"/>
    <circle style="fill:#8697CB;" cx="10" cy="28.5" r="3.5"/>
    <circle style="fill:#8697CB;" cx="49.5" cy="27" r="1"/>
    <circle style="fill:#8697CB;" cx="45.5" cy="27" r="1"/>
    <circle style="fill:#8697CB;" cx="51.5" cy="30" r="1"/>
    <circle style="fill:#8697CB;" cx="47.5" cy="30" r="1"/>
    <circle style="fill:#8697CB;" cx="41.5" cy="27" r="1"/>s
    <circle style="fill:#8697CB;" cx="37.5" cy="27" r="1"/>
    <circle style="fill:#8697CB;" cx="39.5" cy="30" r="1"/>
    <circle style="fill:#8697CB;" cx="33.5" cy="27" r="1"/>
    <circle style="fill:#8697CB;" cx="35.5" cy="30" r="1"/>
    <circle style="fill:#8697CB;" cx="10" cy="47.5" r="3.5"/>
    <circle style="fill:#8697CB;" cx="49.5" cy="46" r="1"/>
    <circle style="fill:#8697CB;" cx="45.5" cy="46" r="1"/>
    <circle style="fill:#8697CB;" cx="51.5" cy="49" r="1"/>
    <circle style="fill:#8697CB;" cx="47.5" cy="49" r="1"/>
    <circle style="fill:#8697CB;" cx="41.5" cy="46" r="1"/>
    <circle style="fill:#8697CB;" cx="43.5" cy="49" r="1"/>
    <circle style="fill:#8697CB;" cx="37.5" cy="46" r="1"/>
    <circle style="fill:#8697CB;" cx="39.5" cy="49" r="1"/>
    <circle style="fill:#8697CB;" cx="33.5" cy="46" r="1"/>
    <circle style="fill:#8697CB;" cx="35.5" cy="49" r="1"/>
  </symbol>

  <symbol id="serverColorInfo" x="0px" y="0px" viewBox="0 0 59 59" style="enable-background:new 0 0 59 59;" xml:space="preserve">
    <path style="fill:#556080;" d="M54.892,19H4.108C2.116,19,0.5,17.384,0.5,15.392V3.608C0.5,1.616,2.116,0,4.108,0h50.783 C56.884,0,58.5,1.616,58.5,3.608v11.783C58.5,17.384,56.884,19,54.892,19z"/>
    <path style="fill:#38454F;" d="M54.892,38H4.108C2.116,38,0.5,36.384,0.5,34.392V22.608C0.5,20.616,2.116,19,4.108,19h50.783c1.993,0,3.608,1.616,3.608,3.608v11.783C58.5,36.384,56.884,38,54.892,38z"/>
    <path style="fill:#556080;" d="M54.892,57H4.108C2.116,57,0.5,55.384,0.5,53.392V41.608C0.5,39.616,2.116,38,4.108,38h50.783c1.993,0,3.608,1.616,3.608,3.608v11.783C58.5,55.384,56.884,57,54.892,57z"/>
    <circle style="fill:#8697CB;" cx="10" cy="9.5" r="3.5"/>
    <circle style="fill:#8697CB;" cx="49.5" cy="8" r="1"/>
    <circle style="fill:#8697CB;" cx="45.5" cy="8" r="1"/>
    <circle style="fill:#8697CB;" cx="51.5" cy="11" r="1"/>
    <circle style="fill:#8697CB;" cx="47.5" cy="11" r="1"/>
    <circle style="fill:#8697CB;" cx="41.5" cy="8" r="1"/>
    <circle style="fill:#8697CB;" cx="43.5" cy="11" r="1"/>
    <circle style="fill:#8697CB;" cx="37.5" cy="8" r="1"/>
    <circle style="fill:#8697CB;" cx="39.5" cy="11" r="1"/>
    <circle style="fill:#8697CB;" cx="33.5" cy="8" r="1"/>
    <circle style="fill:#8697CB;" cx="35.5" cy="11" r="1"/>
    <circle style="fill:#8697CB;" cx="10" cy="28.5" r="3.5"/>
    <circle style="fill:#8697CB;" cx="49.5" cy="27" r="1"/>
    <circle style="fill:#8697CB;" cx="45.5" cy="27" r="1"/>
    <circle style="fill:#8697CB;" cx="51.5" cy="30" r="1"/>
    <circle style="fill:#8697CB;" cx="47.5" cy="30" r="1"/>
    <circle style="fill:#8697CB;" cx="41.5" cy="27" r="1"/>
    <circle style="fill:#8697CB;" cx="43.5" cy="30" r="1"/>
    <circle style="fill:#8697CB;" cx="37.5" cy="27" r="1"/>
    <circle style="fill:#8697CB;" cx="39.5" cy="30" r="1"/>
    <circle style="fill:#8697CB;" cx="33.5" cy="27" r="1"/>
    <circle style="fill:#8697CB;" cx="35.5" cy="30" r="1"/>
    <circle style="fill:#8697CB;" cx="10" cy="47.5" r="3.5"/>
    <circle style="fill:#8697CB;" cx="49.5" cy="46" r="1"/>
    <circle style="fill:#8697CB;" cx="45.5" cy="46" r="1"/>
    <circle style="fill:#8697CB;" cx="51.5" cy="49" r="1"/>
    <circle style="fill:#8697CB;" cx="47.5" cy="49" r="1"/>
    <circle style="fill:#8697CB;" cx="41.5" cy="46" r="1"/>
    <circle style="fill:#8697CB;" cx="43.5" cy="49" r="1"/>
    <circle style="fill:#8697CB;" cx="37.5" cy="46" r="1"/>
    <circle style="fill:#8697CB;" cx="39.5" cy="49" r="1"/>
    <circle style="fill:#8697CB;" cx="33.5" cy="46" r="1"/>
    <circle style="fill:#8697CB;" cx="35.5" cy="49" r="1"/>
    <path style="fill:#EFC41A;" d="M57.261,59H33.57c-0.955,0-1.55-1.036-1.069-1.861l11.845-20.306c0.478-0.819,1.66-0.819,2.138,0 L58.33,57.139C58.811,57.964,58.216,59,57.261,59z"/>
    <path style="fill:#FFFFFF;" d="M45.5,52c-0.552,0-1-0.448-1-1v-8c0-0.552,0.448-1,1-1s1,0.448,1,1v8	C46.5,51.552,46.052,52,45.5,52z"/>
    <path style="fill:#FFFFFF;" d="M45.5,56c-0.26,0-0.52-0.11-0.71-0.29c-0.18-0.19-0.29-0.45-0.29-0.71c0-0.26,0.11-0.52,0.29-0.71c0.38-0.37,1.04-0.37,1.42,0c0.18,0.19,0.29,0.45,0.29,0.71c0,0.26-0.11,0.52-0.29,0.71C46.02,55.89,45.77,56,45.5,56z"/>
  </symbol>

  <symbol id="serverColorPlus" x="0px" y="0px" viewBox="0 0 59 59" style="enable-background:new 0 0 59 59;" xml:space="preserve">
    <path style="fill:#556080;" d="M54.392,19H3.608C1.616,19,0,17.384,0,15.392V3.608C0,1.616,1.616,0,3.608,0h50.783 C56.384,0,58,1.616,58,3.608v11.783C58,17.384,56.384,19,54.392,19z"/>
    <path style="fill:#38454F;" d="M54.392,38H3.608C1.616,38,0,36.384,0,34.392V22.608C0,20.616,1.616,19,3.608,19h50.783 C56.384,19,58,20.616,58,22.608v11.783C58,36.384,56.384,38,54.392,38z"/>
    <path style="fill:#556080;" d="M54.392,57H3.608C1.616,57,0,55.384,0,53.392V41.608C0,39.616,1.616,38,3.608,38h50.783 C56.384,38,58,39.616,58,41.608v11.783C58,55.384,56.384,57,54.392,57z"/>
    <circle style="fill:#8697CB;" cx="9.5" cy="9.5" r="3.5"/>
    <circle style="fill:#8697CB;" cx="49" cy="8" r="1"/>
    <circle style="fill:#8697CB;" cx="45" cy="8" r="1"/>
    <circle style="fill:#8697CB;" cx="51" cy="11" r="1"/>
    <circle style="fill:#8697CB;" cx="47" cy="11" r="1"/>
    <circle style="fill:#8697CB;" cx="41" cy="8" r="1"/>
    <circle style="fill:#8697CB;" cx="43" cy="11" r="1"/>
    <circle style="fill:#8697CB;" cx="37" cy="8" r="1"/>
    <circle style="fill:#8697CB;" cx="39" cy="11" r="1"/>
    <circle style="fill:#8697CB;" cx="33" cy="8" r="1"/>
    <circle style="fill:#8697CB;" cx="35" cy="11" r="1"/>
    <circle style="fill:#8697CB;" cx="9.5" cy="28.5" r="3.5"/>
    <circle style="fill:#8697CB;" cx="49" cy="27" r="1"/>
    <circle style="fill:#8697CB;" cx="45" cy="27" r="1"/>
    <circle style="fill:#8697CB;" cx="51" cy="30" r="1"/>
    <circle style="fill:#8697CB;" cx="47" cy="30" r="1"/>
    <circle style="fill:#8697CB;" cx="41" cy="27" r="1"/>
    <circle style="fill:#8697CB;" cx="43" cy="30" r="1"/>
    <circle style="fill:#8697CB;" cx="37" cy="27" r="1"/>
    <circle style="fill:#8697CB;" cx="39" cy="30" r="1"/>
    <circle style="fill:#8697CB;" cx="33" cy="27" r="1"/>
    <circle style="fill:#8697CB;" cx="35" cy="30" r="1"/>
    <circle style="fill:#8697CB;" cx="9.5" cy="47.5" r="3.5"/>
    <circle style="fill:#8697CB;" cx="49" cy="46" r="1"/>
    <circle style="fill:#8697CB;" cx="45" cy="46" r="1"/>
    <circle style="fill:#8697CB;" cx="51" cy="49" r="1"/>
    <circle style="fill:#8697CB;" cx="47" cy="49" r="1"/>
    <circle style="fill:#8697CB;" cx="41" cy="46" r="1"/>
    <circle style="fill:#8697CB;" cx="43" cy="49" r="1"/>
    <circle style="fill:#8697CB;" cx="37" cy="46" r="1"/>
    <circle style="fill:#8697CB;" cx="39" cy="49" r="1"/>
    <circle style="fill:#8697CB;" cx="33" cy="46" r="1"/>
    <circle style="fill:#8697CB;" cx="35" cy="49" r="1"/>
    <circle style="fill:#71C386;" cx="47" cy="47" r="12"/>
    <path style="fill:#FFFFFF;" d="M53,46h-5v-5c0-0.552-0.448-1-1-1s-1,0.448-1,1v5h-5c-0.552,0-1,0.448-1,1s0.448,1,1,1h5v5
      c0,0.552,0.448,1,1,1s1-0.448,1-1v-5h5c0.552,0,1-0.448,1-1S53.552,46,53,46z"/>
  </symbol>

  <symbol id="mapColor" x="0px" y="0px" viewBox="0 0 495 495" style="enable-background:new 0 0 495 495;" xml:space="preserve">
    <rect x="227.5" y="368.525" style="fill:#D8D7DA;" width="40" height="56.475"/>
    <rect x="110" y="425" style="fill:#C6C5CA;" width="275" height="40"/>
    <polygon style="fill:#006DF0;" points="0,30 0,161.699 131.698,30 	"/>
    <polygon style="fill:#006DF0;" points="247.5,230.979 244.06,227.539 193.074,278.525 247.5,278.525"/>
    <polygon style="fill:#006DF0;" points="204.106,78.236 172.068,46.198 0,218.268 0,278.525 3.818,278.525"/>
    <polygon style="fill:#006DF0;" points="215.776,199.254 177.717,161.195 60.387,278.525 136.505,278.525"/>
    <polygon style="fill:#006DF0;" points="247.5,34.843 247.5,30 212.438,30 232.391,49.952"/>
    <polygon style="fill:#006DF0;" points="206.001,132.911 247.5,174.41 247.5,91.412"/>
    <polygon style="fill:#004FAC;" points="390.947,30 495,134.053 495,30"/>
    <polygon style="fill:#004FAC;" points="252.343,30 247.5,30 247.5,34.843"/>
    <polygon style="fill:#004FAC;" points="247.5,174.41 287.715,214.625 403.359,98.981 334.377,30 308.912,30 247.5,91.412"/>
    <polygon style="fill:#004FAC;" points="295.046,278.525 247.5,230.979 247.5,278.525 	"/>
    <polygon style="fill:#004FAC;" points="316,242.91 351.615,278.525 495,278.525 495,190.623 431.643,127.266"/>
    <rect y="278.525" style="fill:#E0E0E2;" width="495" height="90"/>
    <polygon style="fill:#2488FF;" points="334.377,30 403.359,98.981 287.715,214.625 247.5,174.41 206.001,132.911 308.912,30 252.343,30 247.5,34.843 232.391,49.952 212.438,30 131.698,30 0,161.699 0,218.268 172.068,46.198 204.106,78.236 3.818,278.525 60.387,278.525 177.717,161.195 215.776,199.254 136.505,278.525 193.074,278.525 244.06,227.539 247.5,230.979 295.046,278.525 351.615,278.525 316,242.91 431.643,127.266 495,190.623 495,134.053 390.947,30"/>
  </symbol>

  <symbol id="location" x="0px" y="0px" viewBox="0 0 504.123 504.123" style="enable-background:new 0 0 504.123 504.123;" xml:space="preserve">
    <path style="fill:#0CC18E;" d="M429.064,177.018C429.064,79.258,349.822,0,252.054,0C154.301,0,75.059,79.258,75.059,177.018c0,49.451,21.638,105.614,53.035,149.323l123.975,177.782l124.006-177.814C413.452,272.864,429.064,226.438,429.064,177.018z"/>
    <path style="fill:#17DD9F;" d="M252.054,0C154.301,0,75.059,79.258,75.059,177.018"/>
    <path style="fill:#039176;" d="M252.069,504.123l124.006-177.814c37.368-53.445,52.988-99.872,52.988-149.291 C429.064,79.258,349.822,0,252.054,0"/>
    <path style="fill:#047F73;" d="M429.064,177.018C429.064,79.258,349.822,0,252.054,0"/>
    <circle style="fill:#F44D71;" cx="252.062" cy="166.936" r="79.557"/>
    <path style="fill:#FF6679;" d="M172.528,166.936c0-43.93,35.604-79.557,79.525-79.557"/>
    <path style="fill:#D60949;" d="M252.054,87.387c43.922,0,79.557,35.619,79.557,79.557c0,43.922-35.627,79.525-79.557,79.525"/>
    <path style="fill:#B50444;" d="M331.603,166.936c0,43.922-35.627,79.525-79.557,79.525"/>ß
  </symbol>

  <symbol id="micColor" viewBox="-18.5 0 117 117">
    <g fill="#111" fill-rule="evenodd" stroke="none" stroke-width="1">
      <g fill-rule="nonzero">
        <path d="M40.3,79.6 C55.6,79.6 68,67.1 68,51.8 L68,49.1 L68,28.2 C68,12.9 55.6,0.5 40.3,0.5 C25,0.5 12.6,12.9 12.6,28.2 L12.6,49.1 L12.6,51.8 C12.6,67.1 25,79.6 40.3,79.6 Z M20.8,28.2 C20.8,17.4 29.6,8.6 40.4,8.6 C51.2,8.6 60,17.4 60,28.2 L60,49.1 C60,59.9 51.2,68.7 40.4,68.7 C29.6,68.7 20.8,59.9 20.8,49.1 L20.8,28.2 Z" fill="#17AB13" />
        <path d="M80,51.8 C80,49.5 78.2,47.7 75.9,47.7 C73.6,47.7 71.8,49.5 71.8,51.8 C71.8,69.2 57.7,83.3 40.3,83.3 C22.9,83.3 8.8,69.2 8.8,51.8 C8.8,49.5 7,47.7 4.7,47.7 C2.4,47.7 0.6,49.5 0.6,51.8 C0.6,72.3 16.2,89.2 36.2,91.3 L36.2,108.4 L13.3,108.4 C11,108.4 9.2,110.2 9.2,112.5 C9.2,114.8 11,116.6 13.3,116.6 L65.6,116.6 C67.9,116.6 69.7,114.8 69.7,112.5 C69.7,110.2 67.9,108.4 65.6,108.4 L44.4,108.4 L44.4,91.3 C64.4,89.2 80,72.3 80,51.8 Z" fill="#4A4A4A" />
      </g>
    </g>
  </symbol>

  <symbol id="calendarColor" viewBox="0 0 58 58">
    <g>
      <polygon style="fill:#F05565;" points="46.5,4 46.5,8 39.5,8 39.5,4 15.5,4 15.5,8 8.5,8 8.5,4 0.5,4 0.5,15 54.5,15 54.5,4"/>
      <polygon style="fill:#EFEBDE;" points="8.5,15 0.5,15 0.5,58 54.5,58 54.5,15 46.5,15 39.5,15 15.5,15"/>
      <path style="fill:#D5D0BB;" d="M37.5,22h-2h-7h-2h-7h-2h-9v9v2v7v2v9h9h2h7h2h7h2h9v-9v-2v-7v-2v-9H37.5z M28.5,24h7v7h-7V24z M35.5,40h-7v-7h7V40z M19.5,33h7v7h-7V33z M19.5,24h7v7h-7V24z M10.5,24h7v7h-7V24z M10.5,33h7v7h-7V33z M17.5,49h-7v-7h7V49z M26.5,49h-7v-7h7V49z M35.5,49h-7v-7h7V49z M44.5,49h-7v-7h7V49z M44.5,40h-7v-7h7V40z M37.5,31v-7h7v7H37.5z"/>
      <rect x="8.5" style="fill:#36495E;" width="7" height="8"/>
      <rect x="39.5" style="fill:#36495E;" width="7" height="8"/>
      <rect x="19.5" y="33" style="fill:#7F6E5D;" width="7" height="7"/>
    </g>
    <g>
      <circle style="fill:#76C9B0;" cx="46.5" cy="47" r="11"/>
      <path style="fill:#FFFFFF;" d="M52.5,46h-5v-5c0-0.552-0.447-1-1-1s-1,0.448-1,1v6c0,0.552,0.447,1,1,1h6c0.553,0,1-0.448,1-1 S53.053,46,52.5,46z"/>
    </g>
  </symbol>
</svg>
